<?xml version="1.0" encoding="utf-8"?>
<!-- Generator: Adobe Illustrator 25.2.0, SVG Export Plug-In . SVG Version: 6.00 Build 0)  -->
<svg version="1.1" id="Warstwa_1" xmlns="http://www.w3.org/2000/svg" xmlns:xlink="http://www.w3.org/1999/xlink" x="0px" y="0px"
	 viewBox="0 0 4351.32 1232.32" style="enable-background:new 0 0 4351.32 1232.32;" xml:space="preserve">
<style type="text/css">
	.st0{fill:#E74A51;}
</style>
<path d="M415.67,832.39c-14.73-16.61-27.92-43.58-39.56-80.91l-71.94-232.71c-1.37-5.47-2.06-9.25-2.06-11.3
	c0-13.36,9.07-20.04,27.23-20.04c9.25,0,16.18,1.8,20.81,5.39c4.62,3.6,8.3,9.68,11.05,18.24l71.94,235.8
	c6.85,23.29,13.27,39.81,19.27,49.57c5.99,9.76,12.59,14.64,19.78,14.64c6.85,0,13.27-4.88,19.26-14.64
	c5.99-9.76,12.58-26.28,19.77-49.58l71.39-235.81c2.74-8.56,6.42-14.64,11.04-18.24c4.62-3.6,11.56-5.4,20.81-5.4
	c18.15,0,27.23,6.51,27.23,19.52c0,3.77-0.69,7.71-2.05,11.82l-71.9,232.73c-11.99,38.02-25.26,65.17-39.81,81.43
	c-14.56,16.27-33.13,24.4-55.74,24.41C449.24,857.3,430.39,849,415.67,832.39z"/>
<path d="M799.68,834.15c-28.6-15.41-50.61-37.15-66.02-65.24c-15.41-28.08-23.12-60.27-23.12-96.58c0-36.3,7.7-68.5,23.11-96.58
	c15.41-28.08,37.41-49.83,66.01-65.25c28.59-15.41,61.9-23.12,99.92-23.13s71.32,7.7,99.92,23.11
	c28.59,15.41,50.61,37.16,66.02,65.24c15.41,28.08,23.12,60.28,23.12,96.58c0,36.31-7.7,68.5-23.11,96.58
	c-15.41,28.09-37.42,49.83-66.01,65.25c-28.6,15.41-61.9,23.12-99.92,23.13S828.27,849.56,799.68,834.15z M994.64,773.52
	c23.28-24.66,34.93-58.39,34.92-101.21c0-43.15-11.91-76.97-35.71-101.46c-23.81-24.48-56.26-36.73-97.35-36.72
	c-26.03,0-48.64,5.66-67.81,16.96c-19.18,11.3-33.9,27.41-44.18,48.29c-10.27,20.9-15.41,45.21-15.41,72.95
	c0,28.43,5.31,53,15.93,73.72c10.61,20.73,25.69,36.65,45.21,47.77c19.52,11.13,42.64,16.69,69.36,16.69
	C939.67,810.51,971.34,798.18,994.64,773.52z"/>
<path d="M1198.33,832.84c-13.53-12.84-20.29-30.73-20.3-53.68l-0.02-264.57c0-8.56,2.57-15.24,7.71-20.04
	c5.14-4.79,12.15-7.19,21.06-7.19c8.9,0,16.01,2.49,21.32,7.45c5.31,4.97,7.96,11.56,7.96,19.78l0.02,265.08
	c0,8.22,2.14,14.73,6.42,19.52c4.28,4.8,10.19,7.19,17.72,7.19l166.45-0.01c18.49,0,27.74,7.7,27.74,23.12
	c0,7.19-2.4,12.76-7.19,16.7c-4.8,3.94-11.65,5.91-20.55,5.91l-172.1,0.01C1230.61,852.1,1211.86,845.68,1198.33,832.84z"/>
<path d="M1771.87,494.5c5.14,4.8,7.71,11.48,7.71,20.03l0,57.54c0,45.21-11.55,82.2-34.67,110.97
	c-23.12,28.77-55.05,46.07-95.81,51.89l0.01,95.04c0,8.22-2.66,14.82-7.96,19.78c-5.31,4.96-12.42,7.45-21.32,7.45
	c-8.91,0-16.01-2.4-21.32-7.19c-5.31-4.79-7.96-11.47-7.96-20.03l-0.01-95.04c-41.1-5.82-73.21-22.94-96.33-51.36
	c-23.12-28.42-34.68-65.58-34.69-111.48l0-57.54c0-8.56,2.65-15.24,7.96-20.04c5.3-4.79,12.41-7.19,21.32-7.19
	c8.9,0,16.01,2.49,21.32,7.45c5.31,4.97,7.96,11.56,7.96,19.78l0,59.08c0,37.33,8.82,66.1,26.46,86.3
	c17.64,20.21,42.72,30.31,75.26,30.3c32.19,0,57.1-10.19,74.75-30.57c17.63-20.37,26.45-49.06,26.45-86.05l0-59.08
	c0-8.22,2.74-14.81,8.22-19.78c5.47-4.96,12.67-7.45,21.58-7.45C1759.71,487.31,1766.74,489.71,1771.87,494.5z"/>
<path d="M1874.13,849.99c-5.14-4.79-7.71-11.47-7.71-20.03l-0.02-199.33c0-44.86,13.94-79.97,41.86-105.32
	c27.91-25.34,66.35-38.02,115.33-38.03c32.19,0,60.11,5.73,83.74,17.2c23.63,11.48,41.69,27.99,54.2,49.57
	c12.5,21.58,18.75,47.09,18.76,76.54l0.02,199.33c0,8.56-2.57,15.24-7.7,20.04c-5.14,4.79-12.16,7.19-21.06,7.19
	c-8.91,0-16.01-2.49-21.32-7.45c-5.31-4.96-7.96-11.56-7.96-19.78l-0.02-200.87c0-30.48-8.57-53.94-25.69-70.38
	c-17.13-16.44-41.45-24.66-72.95-24.65c-31.51,0-55.92,8.31-73.2,24.92c-17.3,16.62-25.94,39.99-25.94,70.13l0.02,200.87
	c0,8.22-2.66,14.82-7.96,19.78c-5.31,4.96-12.42,7.45-21.32,7.45C1886.29,857.18,1879.27,854.78,1874.13,849.99z"/>
<path d="M2528.43,849.93c-5.31-4.79-7.96-11.47-7.96-20.03l-0.02-291.8l-105.31,0.01c-8.91,0-15.76-1.97-20.55-5.91
	c-4.8-3.93-7.19-9.5-7.19-16.7c0-7.53,2.39-13.27,7.19-17.21c4.79-3.93,11.64-5.91,20.55-5.91l269.19-0.02
	c8.9,0,15.84,1.97,20.81,5.91c4.96,3.94,7.45,9.68,7.45,17.21c0,7.19-2.49,12.76-7.45,16.7c-4.97,3.94-11.9,5.91-20.81,5.91
	L2579,538.09l0.02,291.8c0,8.22-2.65,14.82-7.96,19.78c-5.31,4.96-12.42,7.45-21.32,7.45
	C2540.84,857.12,2533.73,854.72,2528.43,849.93z"/>
<path d="M2813.03,832.7c-13.53-12.84-20.29-30.73-20.3-53.68l-0.02-215.25c0-22.26,6.5-39.73,19.52-52.4
	c13.01-12.67,31.16-19.01,54.45-19.01l159.77-0.01c8.9,0,15.75,1.97,20.55,5.91c4.79,3.94,7.19,9.68,7.19,17.21
	c0,7.19-2.4,12.76-7.19,16.7c-4.8,3.94-11.65,5.91-20.55,5.91l-151.55,0.01c-7.54,0-13.36,2.4-17.47,7.19
	c-4.11,4.8-6.16,11.3-6.16,19.52l0.01,80.66l136.14-0.01c8.9,0,15.75,1.97,20.55,5.91c4.79,3.94,7.19,9.68,7.19,17.21
	c0,7.19-2.4,12.76-7.19,16.7c-4.8,3.94-11.65,5.91-20.55,5.91l-136.14,0.01l0.01,88.36c0,8.22,2.06,14.73,6.17,19.52
	c4.11,4.8,9.93,7.19,17.47,7.19l162.85-0.01c8.9,0,15.75,1.97,20.55,5.91c4.79,3.94,7.19,9.68,7.19,17.21
	c0,7.19-2.4,12.76-7.19,16.7c-4.8,3.94-11.65,5.91-20.55,5.91l-167.99,0.01C2845.48,851.96,2826.56,845.54,2813.03,832.7z"/>
<path d="M3210.66,834.72c-27.92-14.9-49.32-36.21-64.22-63.95c-14.9-27.74-22.35-60.44-22.35-98.12c0-37.67,7.44-70.46,22.34-98.38
	c14.9-27.91,36.21-49.4,63.96-64.48c27.74-15.07,60.44-22.61,98.12-22.61c30.82,0,59.42,5.31,85.79,15.92
	c26.37,10.62,46.24,25,59.6,43.15c3.77,5.48,5.65,10.45,5.65,14.9c0,7.54-3.94,14.22-11.81,20.04c-4.46,2.75-9.08,4.11-13.87,4.11
	c-4.46,0-8.82-1.03-13.1-3.08c-4.29-2.05-7.96-4.79-11.05-8.22c-11.3-13.69-25.26-23.8-41.87-30.31c-16.62-6.5-36.4-9.76-59.34-9.76
	c-39.39,0-70.12,12.26-92.21,36.74c-22.09,24.49-33.13,58.49-33.13,101.98c0,42.82,11.13,76.46,33.4,100.94
	c22.26,24.49,53.09,36.73,92.47,36.72c46.57,0,82.36-13.36,107.37-40.08c8.22-8.22,16.61-12.33,25.17-12.33
	c5.47,0,10.44,1.72,14.9,5.14c6.85,5.83,10.28,12.16,10.28,19.01c0,5.83-2.05,11.3-6.16,16.44c-14.73,18.16-35.44,32.46-62.16,42.9
	c-26.71,10.45-56.51,15.67-89.39,15.68C3271.36,857.06,3238.57,849.61,3210.66,834.72z"/>
<path d="M3563.33,849.84c-5.14-4.79-7.71-11.47-7.71-20.03l-0.03-315.43c0-8.56,2.57-15.24,7.71-20.04
	c5.14-4.79,12.15-7.19,21.06-7.19c8.9,0,16.01,2.49,21.32,7.45c5.31,4.97,7.96,11.56,7.96,19.78l0.01,129.97l198.3-0.02
	l-0.01-129.97c0-8.22,2.65-14.81,7.96-19.78c5.31-4.96,12.41-7.45,21.32-7.45c8.9,0,16.01,2.4,21.32,7.19
	c5.31,4.8,7.96,11.48,7.96,20.03l0.03,315.43c0,8.56-2.66,15.24-7.96,20.04c-5.31,4.79-12.42,7.19-21.32,7.19
	c-8.91,0-16.01-2.49-21.32-7.45c-5.31-4.96-7.96-11.56-7.96-19.78l-0.01-139.73l-198.3,0.02l0.01,139.73
	c0,8.22-2.65,14.82-7.96,19.78c-5.31,4.96-12.42,7.45-21.32,7.45C3575.48,857.03,3568.46,854.64,3563.33,849.84z"/>
<circle class="st0" cx="1623.23" cy="589.24" r="52"/>
</svg>
